<?xml version="1.0" standalone="no"?>
<!DOCTYPE svg PUBLIC "-//W3C//DTD SVG 20010904//EN"
 "http://www.w3.org/TR/2001/REC-SVG-20010904/DTD/svg10.dtd">
<svg version="1.0" xmlns="http://www.w3.org/2000/svg"
 width="420.000000pt" height="427.000000pt" viewBox="0 0 420.000000 427.000000"
 preserveAspectRatio="xMidYMid meet">

<g transform="translate(0.000000,427.000000) scale(0.100000,-0.100000)"
fill="#000000" stroke="none">
<path d="M2 2138 l-2 -2138 2103 2 c1576 2 1859 4 1132 8 -569 3 -933 8 -880
13 122 10 308 49 435 91 640 208 1135 692 1363 1333 l42 118 3 562 3 561 -42
124 c-253 759 -895 1301 -1698 1435 -149 25 -495 25 -642 0 -608 -102 -1114
-426 -1451 -927 -180 -267 -317 -641 -345 -945 -5 -45 -10 359 -13 910 -4 745
-6 460 -8 -1147z m2419 1986 c883 -123 1579 -823 1704 -1714 19 -135 19 -405
0 -538 -58 -404 -229 -773 -498 -1072 -268 -298 -640 -519 -1024 -609 -152
-35 -289 -51 -458 -51 -242 0 -425 29 -640 101 -516 172 -937 544 -1170 1033
-141 295 -195 535 -195 866 0 337 62 602 207 895 291 585 857 995 1503 1089
134 19 433 20 571 0z m-2385 -2309 c132 -872 811 -1585 1676 -1759 67 -14 164
-29 213 -34 60 -6 -246 -10 -912 -11 l-1003 -1 2 993 c1 545 3 974 5 952 2
-22 10 -85 19 -140z"/>
<path d="M1940 4054 c-444 -55 -825 -234 -1133 -533 -329 -318 -524 -716 -578
-1176 -18 -154 -6 -421 26 -575 174 -837 835 -1443 1680 -1540 632 -72 1286
197 1690 695 204 252 334 530 401 856 25 122 28 154 28 354 0 249 -15 357 -79
569 -178 587 -640 1062 -1220 1255 -213 71 -340 92 -575 96 -113 2 -221 1
-240 -1z m320 -54 c171 -13 313 -41 462 -90 646 -215 1123 -759 1249 -1422 30
-160 37 -442 15 -598 -69 -478 -308 -903 -673 -1196 -272 -219 -560 -344 -917
-399 -164 -26 -456 -17 -626 18 -576 119 -1054 492 -1310 1022 -284 587 -235
1296 127 1836 251 376 643 658 1068 769 140 36 224 50 355 60 58 4 107 8 110
8 3 1 66 -3 140 -8z"/>
<path d="M2230 3826 c0 -7 -2 -29 -6 -47 l-5 -34 15 27 c9 15 25 30 36 33 21
7 100 -3 100 -11 0 -10 -50 -320 -55 -341 -4 -16 -13 -23 -30 -23 -48 0 -25
-17 32 -24 31 -4 69 -9 83 -12 l25 -6 -25 20 -24 20 17 119 c10 66 22 147 28
181 l11 62 37 -6 c52 -9 81 -30 81 -59 0 -42 18 -28 22 18 3 23 3 44 1 46 -4
6 -282 50 -315 51 -17 0 -28 -5 -28 -14z"/>
<path d="M1694 3792 c-55 -26 -101 -85 -115 -147 -10 -43 -9 -61 6 -111 21
-75 53 -116 108 -143 82 -40 175 -22 237 45 66 72 76 168 27 264 -46 90 -172
134 -263 92z m111 -16 c50 -21 91 -85 110 -171 20 -89 10 -141 -35 -179 -83
-70 -171 -30 -220 100 -43 116 -17 224 60 251 45 15 45 15 85 -1z"/>
<path d="M1243 3594 l-143 -85 23 -39 22 -40 3 35 c3 37 52 88 80 83 15 -3
192 -283 192 -305 0 -6 -7 -19 -16 -27 -28 -28 4 -17 68 24 59 37 61 40 32 40
-28 0 -36 9 -122 153 l-92 152 21 18 c30 24 68 32 101 19 15 -5 28 -7 28 -2 0
10 -40 60 -48 60 -4 0 -71 -39 -149 -86z"/>
<path d="M2756 3666 c-56 -21 -113 -81 -132 -139 -48 -145 38 -278 182 -281
178 -2 288 217 179 360 -46 61 -152 88 -229 60z m162 -36 c42 -26 66 -80 57
-132 -10 -57 -61 -152 -100 -187 -65 -56 -153 -47 -195 21 -38 60 -9 175 66
258 58 64 111 77 172 40z"/>
<path d="M3266 3414 c6 -30 1 -36 -121 -140 -150 -129 -158 -133 -185 -109
-34 31 -22 5 21 -47 41 -48 61 -58 40 -20 -8 16 -3 25 32 59 70 66 189 164
194 160 2 -3 -17 -49 -43 -103 -81 -171 -105 -227 -100 -232 6 -5 9 -4 215 52
73 21 135 35 137 33 4 -3 -198 -176 -224 -191 -7 -4 -25 0 -40 10 -26 17 -27
17 -12 -2 71 -92 135 -154 99 -97 -7 13 -8 26 -3 35 17 30 261 228 281 228 10
0 24 -5 31 -12 27 -27 8 10 -23 46 l-35 39 -166 -47 c-92 -25 -169 -44 -172
-41 -3 3 27 74 67 157 39 84 71 158 71 163 0 6 -16 28 -35 50 l-35 40 6 -31z"/>
<path d="M951 3375 c-22 -24 -41 -46 -41 -48 0 -2 13 -2 28 1 23 3 43 -10 125
-83 53 -48 97 -89 97 -92 0 -2 -90 -1 -200 2 l-200 8 -34 -39 c-33 -37 -41
-58 -14 -37 7 6 25 13 40 17 24 5 41 -6 145 -100 129 -115 143 -135 125 -165
-20 -32 -5 -22 40 27 51 55 60 72 25 50 -24 -16 -26 -15 -73 23 -27 21 -78 67
-114 100 l-65 61 195 -6 c107 -3 202 -8 212 -10 45 -13 15 24 -110 136 -75 68
-141 130 -146 138 -5 10 -4 22 3 35 23 36 4 27 -38 -18z"/>
<path d="M2040 3323 c-539 -42 -989 -460 -1075 -996 -15 -98 -22 -107 -117
-178 l-27 -20 13 39 c30 83 24 136 -18 178 -28 28 -42 34 -76 34 -37 0 -48 -6
-84 -43 -22 -24 -56 -65 -74 -90 -18 -26 -44 -54 -58 -63 -24 -16 -27 -16 -52
3 -23 18 -27 28 -26 68 0 39 5 52 27 71 15 13 44 26 65 30 35 7 35 8 12 15
-14 4 -46 7 -72 8 -39 1 -46 -2 -41 -15 3 -8 -2 -39 -12 -68 -21 -61 -16 -91
21 -135 32 -38 80 -49 122 -27 17 9 56 51 87 95 62 86 91 106 129 91 34 -13
49 -46 43 -92 -7 -50 -39 -85 -91 -100 -40 -12 -41 -12 -11 -15 57 -7 61 -12
26 -41 l-32 -27 94 -150 c150 -238 287 -433 484 -685 10 -13 15 -13 33 -2 19
12 26 9 71 -28 70 -59 198 -133 294 -171 73 -28 86 -37 106 -73 13 -22 61 -78
107 -124 99 -99 89 -98 255 -15 186 93 357 153 442 153 22 1 58 8 80 16 22 9
66 19 97 24 35 5 95 26 151 53 182 89 260 223 276 472 7 103 12 129 38 185 51
110 65 179 70 367 6 192 -4 292 -44 418 -145 462 -542 787 -1022 835 -101 10
-120 10 -211 3z m299 -48 c181 -35 345 -105 483 -207 310 -230 481 -580 465
-952 -4 -115 -21 -216 -36 -216 -4 0 -15 13 -24 30 -16 26 -17 38 -6 117 13
99 7 234 -15 338 -94 441 -450 772 -903 840 -176 27 -333 12 -508 -46 -339
-113 -609 -400 -695 -739 -21 -80 -56 -140 -83 -140 -28 0 37 228 102 359 163
325 464 551 818 615 107 19 302 20 402 1z m21 -237 c50 -14 105 -54 120 -86
15 -32 50 -151 50 -169 0 -22 -93 -16 -123 7 -27 22 -47 26 -47 10 0 -19 -18
-10 -25 13 -6 20 -7 19 -15 -11 -4 -19 -12 -38 -17 -43 -12 -12 -53 2 -72 24
-7 9 -19 13 -27 10 -11 -4 -14 9 -14 67 0 64 -2 71 -15 60 -13 -10 -19 -10
-34 4 -16 14 -30 16 -82 10 l-64 -7 30 32 c76 82 215 114 335 79z m-210 -217
c0 -11 -4 -22 -9 -25 -11 -7 -23 22 -15 35 9 16 24 10 24 -10z m691 -25 c11
-25 38 -61 62 -81 l42 -36 -32 -28 c-18 -15 -33 -33 -33 -39 0 -7 -14 -12 -31
-12 -20 0 -72 -23 -145 -65 -215 -124 -367 -195 -468 -219 -62 -15 -73 -36
-19 -36 71 0 150 32 314 126 84 49 159 77 250 95 33 7 70 20 82 30 12 10 38
32 58 48 l36 30 23 -24 22 -24 -38 -6 c-107 -17 -111 -28 -19 -43 51 -8 72
-17 96 -41 17 -17 34 -31 39 -31 14 0 90 -125 90 -149 0 -12 7 -38 15 -58 8
-20 13 -39 9 -42 -11 -11 -52 51 -58 88 -3 20 -16 56 -28 81 -30 59 -59 69
-131 47 -30 -9 -70 -17 -90 -17 -33 0 -37 3 -37 25 0 51 -103 46 -198 -10
-139 -81 -302 -133 -442 -142 l-95 -5 -12 26 c-10 24 -9 28 13 38 29 14 31 24
4 31 -11 3 -20 14 -20 24 0 11 -7 28 -15 39 -19 25 -19 34 0 34 8 0 15 5 15
10 0 6 -16 10 -36 10 -24 0 -34 4 -31 13 2 6 10 11 16 9 6 -1 11 9 11 23 0 14
-4 25 -10 25 -5 0 -10 -4 -10 -8 0 -5 -11 -14 -24 -20 -22 -10 -24 -8 -30 26
-12 74 -1 97 22 47 15 -33 23 -31 50 12 27 42 21 53 -41 68 -39 10 -42 14 -50
54 -5 23 -6 49 -3 57 9 23 76 17 121 -11 22 -13 50 -25 63 -25 12 0 30 -9 40
-21 16 -19 51 -38 95 -53 10 -3 17 -15 17 -30 0 -38 10 -56 31 -56 16 0 18 -5
13 -25 -4 -15 -2 -25 4 -25 14 0 52 49 52 67 0 7 7 16 16 20 12 4 14 14 10 39
-4 18 -2 35 4 39 5 3 10 14 10 25 0 22 23 32 57 24 19 -5 23 -11 19 -28 -3
-11 -6 -27 -6 -33 0 -7 -11 -13 -25 -13 -14 0 -28 -7 -31 -15 -9 -23 15 -45
47 -45 30 0 59 -31 59 -62 0 -34 -214 -151 -333 -182 -70 -18 -82 -25 -69 -38
12 -12 114 13 196 49 108 48 280 144 314 177 19 17 51 67 73 112 39 80 49 136
28 150 -8 4 -7 9 2 15 30 19 50 9 70 -35z m-481 -72 c11 -28 3 -94 -10 -94 -5
0 -6 15 -3 34 3 18 0 42 -6 53 -9 18 -6 33 6 33 2 0 8 -12 13 -26z m365 7 c3
-5 1 -12 -5 -16 -5 -3 -10 1 -10 9 0 18 6 21 15 7z m-100 -36 c-16 -13 -31
-22 -34 -20 -8 8 32 45 48 45 11 -1 7 -8 -14 -25z m-25 -95 c0 -5 -4 -10 -10
-10 -5 0 -10 5 -10 10 0 6 5 10 10 10 6 0 10 -4 10 -10z m-1177 -182 c54 -74
77 -126 77 -175 0 -43 -4 -51 -42 -85 -35 -30 -39 -37 -23 -38 11 0 31 7 43
16 13 9 26 14 29 10 3 -3 6 -40 7 -83 2 -92 31 -166 70 -184 34 -16 37 -41 10
-86 -13 -21 -24 -45 -24 -54 0 -22 29 -79 41 -79 18 0 9 -17 -16 -28 -43 -20
-66 -69 -64 -135 l3 -58 -69 -75 c-37 -41 -75 -74 -85 -74 -19 0 -124 156
-265 395 -85 143 -152 225 -229 283 -16 12 -27 24 -25 25 2 2 51 30 109 62 67
38 126 80 164 117 54 54 59 57 72 41 89 -117 267 -406 308 -500 16 -36 49 -64
61 -51 1 1 -14 30 -35 63 -157 252 -203 327 -263 425 -38 61 -67 113 -65 114
1 1 19 9 38 16 78 30 120 81 120 145 0 35 24 32 53 -7z m-108 -48 c-9 -15 -86
-63 -91 -57 -3 2 17 20 43 40 47 34 62 40 48 17z m710 -10 c4 -6 -6 -10 -24
-10 -16 0 -65 -11 -108 -24 -65 -20 -203 -40 -203 -29 0 7 89 47 130 59 55 15
196 18 205 4z m857 -14 c38 -7 77 -21 89 -32 11 -10 44 -28 72 -39 39 -16 53
-27 60 -50 14 -44 28 -57 53 -51 21 6 22 4 17 -29 -3 -19 0 -55 6 -81 7 -26
10 -48 8 -50 -2 -2 -25 28 -52 66 -47 71 -77 96 -95 85 -19 -12 -9 -38 30 -79
36 -37 87 -107 144 -199 20 -30 20 -31 0 -22 -10 5 -38 10 -62 13 -28 3 -46
10 -53 23 -6 12 -20 19 -37 19 -15 0 -56 14 -92 31 -59 28 -71 30 -130 24 -35
-4 -87 -16 -115 -27 -41 -16 -64 -19 -125 -14 -60 5 -97 1 -185 -19 -60 -14
-133 -25 -162 -25 -45 0 -58 4 -85 30 -17 17 -50 42 -74 57 -34 22 -47 39 -63
81 -12 30 -21 57 -21 60 0 3 18 -11 40 -33 22 -21 43 -36 46 -32 4 4 -7 38
-24 77 -17 38 -27 72 -23 74 13 9 34 -12 60 -60 28 -52 50 -63 87 -43 32 17
30 28 -6 41 -29 9 -50 34 -50 57 0 5 37 12 83 15 151 9 185 16 190 37 4 15 14
19 50 19 33 0 53 6 74 24 36 29 70 48 108 57 49 11 165 9 237 -5z m-1312 -101
c-19 -14 -39 -25 -44 -25 -18 1 44 50 62 50 10 0 4 -9 -18 -25z m150 -40 l23
-25 -17 -101 -17 -102 22 -24 c31 -32 47 -29 57 10 l8 32 13 -23 c9 -16 11
-45 7 -90 -18 -198 -18 -232 2 -273 19 -38 19 -39 1 -39 -10 0 -33 13 -51 29
-31 28 -33 33 -32 93 0 44 8 82 26 124 16 38 22 67 17 75 -9 16 -11 14 -33
-28 -9 -18 -20 -33 -25 -33 -16 0 -41 37 -47 69 -4 19 -19 41 -35 53 -29 22
-49 64 -49 105 0 14 -17 42 -40 67 -22 24 -40 46 -40 50 0 19 55 2 89 -29 42
-38 51 -42 51 -22 0 8 12 19 27 26 20 9 23 15 15 23 -14 14 -16 58 -4 58 5 0
19 -11 32 -25z m-727 -63 c-76 -60 -195 -144 -199 -139 -5 5 205 157 216 157
3 -1 -5 -8 -17 -18z m987 -147 c0 -8 -4 -15 -10 -15 -5 0 -10 7 -10 15 0 8 5
15 10 15 6 0 10 -7 10 -15z m-98 -85 c-5 -33 -6 -33 -12 -10 -7 29 -1 65 10
53 4 -4 5 -24 2 -43z m173 -10 c-4 -12 -9 -19 -12 -17 -3 3 -2 15 2 27 4 12 9
19 12 17 3 -3 2 -15 -2 -27z m-1107 -48 c8 -7 12 -16 8 -19 -7 -8 -66 46 -66
60 0 9 18 -4 58 -41z m989 1 c-3 -10 -5 -2 -5 17 0 19 2 27 5 18 2 -10 2 -26
0 -35z m629 -1 c-22 -23 -29 -10 -9 18 11 16 18 19 21 11 2 -7 -3 -20 -12 -29z
m154 12 c0 -13 -75 -105 -96 -119 -26 -17 -37 -9 -23 16 8 15 6 21 -8 26 -12
5 -23 -2 -37 -22 -41 -57 -71 -84 -100 -91 -45 -11 -30 8 83 106 92 80 109 90
143 90 21 0 38 -3 38 -6z m-670 -44 c0 -11 -4 -20 -10 -20 -5 0 -10 9 -10 20
0 11 5 20 10 20 6 0 10 -9 10 -20z m886 5 l35 -14 -5 -83 c-3 -48 -10 -82 -16
-81 -14 4 -38 -37 -45 -80 -4 -20 -17 -52 -29 -70 -22 -32 -23 -32 -106 -33
-59 -1 -103 5 -144 18 -32 11 -77 23 -100 27 -22 5 -49 12 -58 16 -13 5 -18 3
-18 -7 0 -15 81 -43 190 -67 82 -19 206 -14 253 10 93 47 110 78 108 201 -1
87 10 138 29 138 6 0 23 -28 39 -62 15 -35 35 -69 44 -77 23 -19 21 -54 -7
-109 -34 -66 -38 -112 -10 -112 27 0 10 -24 -33 -47 -54 -28 -107 -85 -139
-150 -26 -53 -27 -53 -73 -52 -25 0 -93 6 -151 13 -120 14 -156 9 -85 -12 62
-18 91 -37 74 -48 -21 -12 -253 -23 -261 -11 -12 19 -143 1 -191 -27 l-44 -26
-46 35 c-26 20 -47 40 -47 45 0 5 -12 22 -26 39 -18 22 -27 46 -31 88 -6 59
-21 93 -33 74 -9 -15 10 -195 21 -199 5 -2 9 -9 9 -15 0 -17 66 -67 88 -67 11
0 25 -7 33 -16 8 -10 21 -13 36 -9 17 4 23 1 23 -11 0 -12 7 -14 28 -10 15 3
33 2 41 -3 10 -7 1 -11 -32 -16 -55 -9 -89 -32 -107 -75 -18 -43 -25 -37 -22
17 2 35 -3 58 -20 87 -35 60 -49 58 -44 -6 3 -38 8 -54 20 -56 14 -3 14 -7 2
-30 -8 -15 -19 -47 -26 -72 -30 -111 -56 -91 -104 76 -41 144 -50 253 -32 386
9 61 16 129 16 150 0 21 3 38 6 38 19 0 47 -27 70 -68 32 -55 50 -72 78 -72
18 0 18 2 -7 28 -15 15 -27 37 -27 48 0 12 -9 29 -20 39 -11 10 -20 23 -20 28
0 23 121 -120 170 -201 9 -14 21 -27 28 -30 12 -4 16 3 26 51 l6 27 30 -34
c17 -19 28 -40 25 -48 -3 -8 3 -22 13 -31 26 -23 141 -69 158 -63 30 11 11 37
-55 76 -38 22 -87 60 -108 84 -21 24 -57 55 -80 70 -24 14 -67 51 -96 81 -33
34 -62 55 -75 55 -12 0 -22 5 -22 10 0 18 39 10 131 -26 65 -27 93 -34 101
-26 8 8 -2 17 -35 31 -102 44 -21 53 92 11 64 -25 77 -25 84 0 6 23 27 25 81
5 31 -11 57 -12 114 -5 85 11 144 1 176 -29 40 -38 74 -25 51 19 -18 35 -87
58 -195 67 -44 3 -80 9 -80 14 0 4 15 13 34 19 33 11 123 72 214 145 48 38 75
43 128 20z m-768 -38 c-14 -39 -31 -52 -36 -26 -3 15 36 74 44 66 2 -2 -2 -20
-8 -40z m-1134 -154 c62 -85 205 -303 200 -303 -11 0 -332 451 -342 480 -6 18
62 -67 142 -177z m1298 165 c-7 -7 -12 -8 -12 -2 0 6 3 14 7 17 3 4 9 5 12 2
2 -3 -1 -11 -7 -17z m842 6 c4 -10 1 -14 -6 -12 -15 5 -23 28 -10 28 5 0 13
-7 16 -16z m-943 -51 c-9 -16 -10 -15 -11 8 0 14 3 29 8 33 12 12 14 -22 3
-41z m-1057 -219 c48 -80 86 -148 83 -150 -5 -6 -49 59 -166 246 -76 121 -84
137 -48 97 24 -26 83 -113 131 -193z m763 214 c-3 -8 -6 -5 -6 6 -1 11 2 17 5
13 3 -3 4 -12 1 -19z m77 -25 c-10 -42 -24 -52 -24 -17 0 31 6 44 22 44 5 0 5
-12 2 -27z m69 -20 c-8 -54 -21 -85 -32 -78 -6 3 -4 24 4 53 8 26 15 50 15 55
0 4 4 7 9 7 6 0 7 -17 4 -37z m1107 -74 c0 -33 -4 -59 -10 -59 -6 0 -10 29
-10 66 0 41 4 63 10 59 6 -3 10 -33 10 -66z m-1266 -23 c19 -41 20 -46 3 -46
-24 0 -49 37 -42 59 9 30 20 26 39 -13z m1042 -22 c-4 -9 -9 -15 -11 -12 -3 3
-3 13 1 22 4 9 9 15 11 12 3 -3 3 -13 -1 -22z m-1236 -19 c11 -13 8 -15 -14
-15 -16 0 -26 5 -26 15 0 8 6 15 14 15 7 0 19 -7 26 -15z m14 -40 c86 0 89 -1
112 -30 43 -54 44 -137 1 -149 -37 -10 -120 -7 -162 6 l-40 12 33 4 c46 5 40
19 -22 46 -29 13 -57 29 -60 35 -9 14 -1 14 48 0 27 -7 42 -7 49 0 7 7 6 12
-4 15 -103 37 -129 49 -129 63 0 13 7 14 43 7 23 -5 82 -9 131 -9z m1397 -232
c-13 -24 -81 -89 -81 -78 0 8 80 95 87 95 2 0 -1 -8 -6 -17z m-1845 -24 c17
-18 22 -28 12 -24 -14 6 -55 55 -45 55 2 0 16 -14 33 -31z m490 9 c5 -8 -4
-10 -33 -6 -59 8 -65 1 -53 -62 5 -29 10 -62 10 -74 -1 -20 -1 -20 -15 -2 -18
24 -40 119 -32 140 8 19 112 23 123 4z m-305 -47 c25 -20 77 -54 117 -76 48
-27 75 -49 83 -68 6 -15 10 -29 8 -32 -9 -8 -112 52 -204 119 -82 60 -93 71
-84 88 11 21 14 20 80 -31z m887 -183 c-3 -7 -13 -15 -24 -17 -16 -3 -17 -1
-5 13 16 19 34 21 29 4z m-483 -58 c3 -5 1 -10 -4 -10 -6 0 -11 5 -11 10 0 6
2 10 4 10 3 0 8 -4 11 -10z m343 -76 c-14 -15 -34 -24 -44 -22 -15 3 -12 9 20
30 47 33 60 28 24 -8z"/>
<path d="M2216 2865 c-9 -25 2 -35 36 -35 29 0 30 1 16 23 -19 28 -43 33 -52
12z"/>
<path d="M2283 2455 c-29 -40 -30 -43 -9 -34 20 9 56 56 56 73 0 16 -18 1 -47
-39z"/>
<path d="M1394 2238 c-17 -18 -40 -41 -53 -51 -28 -22 -19 -42 12 -25 38 20
107 82 107 95 0 24 -36 13 -66 -19z"/>
<path d="M1216 2111 c-3 -5 -21 -16 -41 -25 -22 -11 -35 -24 -35 -36 0 -11 4
-20 9 -20 11 0 95 68 99 81 5 12 -25 12 -32 0z"/>
<path d="M1365 2109 c-4 -6 -5 -13 -2 -16 7 -7 27 6 27 18 0 12 -17 12 -25 -2z"/>
<path d="M1220 2016 c-25 -24 -52 -45 -60 -48 -8 -2 -11 -11 -7 -22 6 -14 10
-15 28 -6 34 19 99 81 99 96 0 27 -17 21 -60 -20z"/>
<path d="M1070 2000 c-6 -11 -16 -20 -23 -20 -16 0 -39 -38 -31 -51 3 -6 21 1
42 18 53 40 64 52 57 63 -10 17 -34 11 -45 -10z"/>
<path d="M1263 1973 c-25 -17 -31 -43 -9 -43 16 0 66 38 66 51 0 14 -32 10
-57 -8z"/>
<path d="M1292 1913 c-16 -16 -42 -38 -58 -49 -22 -17 -26 -25 -18 -34 15 -15
49 1 64 30 6 11 24 27 40 35 31 16 41 45 15 45 -8 0 -27 -12 -43 -27z"/>
<path d="M1099 1923 c-18 -4 -46 -50 -36 -59 8 -9 66 38 66 54 1 12 -2 13 -30
5z"/>
<path d="M1156 1885 c-9 -14 -23 -25 -30 -25 -14 0 -26 -21 -26 -47 0 -10 17
0 50 27 28 24 49 47 47 53 -7 21 -24 17 -41 -8z"/>
<path d="M1334 1845 c-9 -14 -14 -29 -10 -32 8 -8 58 28 64 45 7 23 -38 12
-54 -13z"/>
<path d="M1161 1794 c-33 -27 -40 -44 -18 -44 14 0 67 50 67 63 0 14 -19 7
-49 -19z"/>
<path d="M1371 1796 c-32 -34 -18 -52 20 -24 30 23 39 48 16 48 -8 0 -24 -11
-36 -24z"/>
<path d="M1233 1760 c-9 -17 -25 -33 -35 -36 -20 -6 -25 -34 -5 -34 21 1 101
76 93 88 -13 21 -34 13 -53 -18z"/>
<path d="M1418 1734 c-29 -15 -38 -44 -14 -44 8 0 24 9 37 19 33 27 15 45 -23
25z"/>
<path d="M1292 1720 c-17 -11 -32 -24 -32 -28 0 -5 -11 -14 -25 -20 -27 -12
-34 -42 -11 -42 8 0 28 12 43 26 15 14 39 34 53 44 38 28 14 45 -28 20z"/>
<path d="M1430 1660 c-71 -60 -72 -62 -62 -72 6 -6 17 -6 30 1 27 15 102 82
102 93 0 17 -37 6 -70 -22z"/>
<path d="M1293 1636 c-57 -57 -60 -84 -5 -49 38 25 62 53 62 75 0 26 -10 22
-57 -26z"/>
<path d="M1483 1611 c-23 -19 -31 -51 -14 -51 5 0 14 7 21 15 7 8 19 15 26 15
8 0 14 9 14 20 0 25 -18 25 -47 1z"/>
<path d="M1298 1554 c-30 -16 -38 -44 -13 -44 18 0 75 40 75 52 0 13 -32 9
-62 -8z"/>
<path d="M1368 1504 c-47 -44 -53 -72 -10 -50 37 19 76 62 67 75 -10 17 -17
14 -57 -25z"/>
<path d="M2550 2276 c0 -8 -19 -21 -42 -31 -152 -60 -258 -108 -258 -116 0
-15 33 -10 96 12 32 12 113 41 178 64 66 23 121 46 123 52 2 5 -14 15 -35 21
-51 15 -62 15 -62 -2z"/>
<path d="M2680 2181 c0 -5 7 -11 15 -15 8 -3 12 -12 9 -21 -5 -11 1 -15 19
-15 36 0 43 17 15 40 -24 20 -58 27 -58 11z"/>
<path d="M2600 2133 c-68 -22 -120 -45 -120 -54 0 -4 28 -5 63 -2 51 5 104 24
137 50 5 4 -22 23 -30 22 -3 -1 -25 -8 -50 -16z"/>
<path d="M2642 2071 c-35 -9 -69 -23 -75 -32 -7 -9 -38 -24 -69 -33 -57 -16
-97 -46 -45 -32 15 3 35 1 46 -6 17 -10 30 -4 98 40 44 29 91 52 105 52 14 0
31 7 38 15 10 13 9 15 -11 14 -13 -1 -53 -9 -87 -18z"/>
<path d="M987 2792 c-16 -15 -45 -17 -237 -20 -121 -2 -220 -6 -220 -10 0 -4
63 -70 141 -147 79 -78 149 -157 159 -178 l17 -38 22 52 c23 57 22 71 -5 44
-16 -15 -19 -14 -60 26 l-43 42 21 51 c11 28 24 61 29 74 7 19 16 22 68 22 45
0 60 -4 65 -16 3 -9 3 -21 -1 -26 -3 -6 -1 -8 4 -5 12 7 66 137 60 143 -2 2
-11 -4 -20 -14z m-197 -91 c0 -15 -42 -111 -49 -111 -4 0 -33 27 -66 60 l-59
60 87 0 c48 0 87 -4 87 -9z"/>
<path d="M3290 2740 c0 -6 8 -35 17 -63 15 -46 18 -49 23 -27 5 23 11 25 63
28 57 3 58 3 72 -32 8 -19 20 -56 27 -82 l13 -46 -39 -34 c-43 -37 -63 -42
-72 -19 -4 8 -10 15 -14 15 -5 0 3 -35 18 -77 18 -52 28 -71 30 -56 4 24 73
91 233 226 54 45 97 87 95 92 -1 6 -95 18 -207 28 -170 15 -209 21 -231 38
-16 11 -28 15 -28 9z m362 -87 c4 -2 -12 -20 -35 -40 -23 -21 -52 -46 -64 -57
l-23 -19 -15 37 c-9 20 -18 51 -22 68 l-6 30 79 -7 c43 -4 82 -9 86 -12z"/>
<path d="M3786 2621 c5 -5 33 -19 62 -30 41 -17 52 -18 52 -7 0 38 -12 46 -68
46 -35 0 -52 -4 -46 -9z"/>
<path d="M3450 2293 c-29 -3 -39 -7 -30 -13 11 -7 11 -18 0 -69 -16 -77 -3
-128 41 -165 57 -49 131 -27 175 52 70 123 93 152 123 152 41 0 75 -44 67 -84
-10 -47 -34 -76 -79 -96 l-42 -19 73 0 c64 -1 94 10 60 22 -10 3 -10 11 0 39
35 98 -12 188 -99 188 -50 0 -82 -28 -130 -116 -39 -71 -78 -114 -104 -114
-22 0 -63 39 -68 66 -11 59 30 127 84 139 33 7 29 26 -4 23 -12 -1 -42 -3 -67
-5z"/>
<path d="M860 1399 c0 -21 -187 -132 -212 -126 -20 6 -20 6 58 -130 19 -34 45
-42 74 -23 12 8 9 10 -11 10 -28 0 -48 18 -73 67 l-16 32 91 56 c63 39 99 55
115 52 22 -4 22 -3 9 22 -8 14 -19 33 -24 41 -9 13 -11 13 -11 -1z"/>
<path d="M3370 1371 c0 -5 -13 -23 -30 -41 -35 -38 -39 -81 -10 -110 27 -27
60 -25 120 5 56 28 92 32 110 10 29 -35 -26 -102 -76 -92 -32 6 -30 -4 3 -25
26 -16 27 -15 60 24 41 50 51 84 32 117 -26 46 -60 49 -129 13 -76 -40 -107
-42 -116 -5 -10 38 36 77 80 69 30 -5 30 -5 11 10 -32 25 -55 36 -55 25z"/>
<path d="M970 1206 c0 -8 -28 -40 -62 -71 -71 -66 -87 -89 -88 -127 0 -38 53
-96 96 -104 40 -7 58 3 140 77 60 54 81 58 102 19 16 -30 9 -150 -9 -161 -22
-13 -128 -32 -151 -26 -19 5 -17 1 12 -24 32 -27 35 -28 41 -10 6 15 71 41
103 41 3 0 6 -22 6 -50 0 -36 -5 -52 -17 -59 -17 -10 -16 -12 7 -31 14 -11 33
-25 42 -31 16 -9 17 -7 7 15 -8 16 -8 47 -3 96 l9 73 45 13 c25 8 61 14 80 14
l35 1 -30 24 c-28 23 -30 23 -37 6 -6 -18 -81 -45 -93 -33 -7 7 -6 56 1 76 3
9 14 16 23 16 10 0 4 10 -19 28 -19 15 -52 45 -72 67 -32 34 -38 37 -38 19 0
-25 -135 -144 -162 -144 -27 0 -75 26 -82 45 -15 41 -4 62 66 128 57 54 77 68
96 64 22 -4 22 -3 -9 29 -37 38 -39 39 -39 20z"/>
<path d="M3200 1134 c0 -4 27 -60 60 -125 33 -65 60 -126 60 -136 1 -15 4 -14
21 7 19 22 19 25 5 28 -9 2 -23 17 -32 33 -14 29 -14 31 17 70 27 34 36 39 58
34 14 -3 33 -14 42 -25 16 -18 17 -18 38 10 23 31 27 45 11 35 -5 -3 -68 12
-138 34 -135 43 -142 45 -142 35z m137 -80 c2 -5 -8 -22 -21 -39 l-23 -29 -22
42 c-11 22 -21 45 -21 51 0 11 83 -12 87 -25z"/>
<path d="M3052 989 c-76 -65 -81 -72 -70 -92 12 -21 12 -21 16 -2 2 11 13 30
25 42 20 22 21 22 40 5 44 -40 138 -166 133 -179 -3 -7 11 -1 31 14 32 25 34
28 16 33 -12 3 -53 43 -92 90 l-71 85 25 22 c16 14 32 19 47 16 23 -6 23 -6 4
15 -11 12 -20 22 -20 22 -1 -1 -38 -32 -84 -71z"/>
<path d="M2892 864 c-22 -15 -22 -16 -4 -32 28 -26 122 -176 122 -196 0 -16 2
-16 30 1 25 14 28 20 17 28 -23 17 -137 196 -131 206 8 14 -9 11 -34 -7z"/>
<path d="M2675 752 c-44 -21 -55 -30 -42 -35 24 -9 109 -186 104 -214 -5 -27
-2 -28 42 -4 26 14 30 19 18 24 -24 9 -61 87 -48 100 10 10 20 6 122 -52 23
-13 31 -13 55 -2 l29 14 -35 11 c-19 6 -55 21 -78 34 -41 22 -43 25 -28 41 21
24 20 74 -2 94 -27 24 -69 21 -137 -11z m93 -8 c26 -18 29 -60 5 -86 -25 -28
-41 -22 -66 28 -21 45 -22 46 -3 60 25 18 36 18 64 -2z"/>
<path d="M1532 753 c2 -29 -72 -217 -89 -227 -12 -6 7 -17 73 -43 l88 -34 20
21 21 20 -33 -6 c-45 -9 -112 13 -112 37 0 20 29 99 36 99 22 0 76 -34 82 -50
7 -20 9 -18 19 15 10 33 10 35 -7 30 -10 -3 -35 1 -55 10 -29 12 -36 19 -30
32 4 10 12 30 17 46 5 15 16 27 23 27 28 0 87 -32 92 -50 6 -23 23 -17 23 8 0
12 -23 26 -77 47 -42 17 -80 31 -84 33 -4 2 -7 -5 -7 -15z"/>
<path d="M2485 688 c-38 -11 -71 -21 -73 -23 -2 -2 1 -11 7 -22 19 -34 61
-211 54 -229 -5 -13 -3 -16 8 -12 8 3 47 14 88 24 59 15 75 24 83 43 13 35 3
51 -12 18 -10 -20 -26 -31 -59 -41 -53 -16 -61 -12 -78 47 -15 52 -7 61 53 62
40 0 44 2 40 20 -3 11 -6 24 -6 29 0 5 -10 0 -22 -12 -13 -11 -36 -22 -52 -24
-27 -3 -31 1 -43 41 -7 24 -10 47 -8 51 3 4 26 13 51 19 40 10 49 10 65 -5 21
-19 24 -13 9 17 -13 23 -15 22 -105 -3z"/>
<path d="M1726 674 c-11 -28 -6 -35 14 -21 29 20 70 10 69 -17 -1 -48 -37
-210 -48 -214 -20 -7 0 -22 29 -22 22 0 27 4 24 18 -2 9 6 64 19 122 21 101
23 105 47 102 14 -1 33 -11 42 -22 17 -20 17 -20 23 1 4 11 5 22 3 24 -3 3
-202 45 -214 45 -1 0 -5 -7 -8 -16z"/>
<path d="M2320 650 c-14 -4 -19 -8 -12 -9 6 -1 12 -10 12 -22 0 -25 -39 -160
-50 -172 -4 -5 -28 31 -54 79 -36 67 -44 90 -35 100 9 12 4 14 -29 14 -41 0
-63 -13 -39 -23 7 -3 42 -59 78 -126 35 -66 67 -121 71 -121 4 0 9 8 12 18 53
184 78 250 99 260 l22 11 -25 -1 c-14 0 -36 -4 -50 -8z"/>
</g>
</svg>
